<svg width="1026" height="84" viewBox="0 0 1026 84" fill="none" xmlns="http://www.w3.org/2000/svg">
<path d="M0.664001 14.992V82H23.416V55.408H74.872V40.144H23.416V30.16H76.12V14.992H0.664001Z" fill="url(#paint0_linear_104_219)"/>
<path d="M139.316 15.568H105.237L69.6205 81.904H92.0845L98.3245 69.808H146.229L152.469 81.904H175.029L139.316 15.568ZM106.101 54.832L118.676 30.448H125.877L138.549 54.832H106.101Z" fill="url(#paint1_linear_104_219)"/>
<path d="M179.226 82H242.586C262.842 82 273.018 75.568 273.018 62.608V61.36C273.018 58.576 272.442 56.08 271.29 53.968C270.234 51.76 268.698 50.032 266.874 48.784C265.05 47.632 263.418 46.672 261.882 46C260.346 45.328 258.81 44.752 257.178 44.464C258.33 44.176 259.482 43.696 260.538 43.12C261.69 42.64 262.938 41.872 264.282 40.816C265.722 39.856 266.778 38.512 267.642 36.88C268.41 35.248 268.89 33.328 268.89 31.312V30.064C268.89 25.552 266.874 21.808 262.746 18.928C258.714 16.048 251.802 14.704 242.01 14.704H179.226V82ZM202.17 28.912H238.074C243.45 28.912 246.042 30.64 246.042 34.192V34.384C246.042 38.032 243.45 39.856 238.074 39.856H202.17V28.912ZM240.09 54.16C246.138 54.16 249.114 56.176 249.114 60.4V60.688C249.114 62.512 248.442 64.048 247.194 65.296C245.85 66.64 243.45 67.312 240.09 67.312H202.17V54.16H240.09Z" fill="url(#paint2_linear_104_219)"/>
<path d="M304.574 14.992H281.727V82H304.574V14.992Z" fill="url(#paint3_linear_104_219)"/>
<path d="M364.807 13.744C358.375 13.744 352.615 14.128 347.335 14.992C342.151 15.76 337.735 16.816 334.183 18.16C330.727 19.504 327.655 21.136 325.063 23.056C322.375 24.976 320.359 26.896 318.823 28.816C317.383 30.736 316.231 32.848 315.367 35.152C314.407 37.456 313.831 39.568 313.639 41.296C313.351 43.12 313.255 44.944 313.255 46.96V49.648C313.255 51.568 313.351 53.488 313.639 55.312C313.831 57.04 314.407 59.152 315.367 61.456C316.231 63.76 317.383 65.872 318.823 67.888C320.359 69.808 322.375 71.728 325.063 73.744C327.751 75.664 330.823 77.296 334.279 78.736C337.735 80.08 342.151 81.136 347.335 82C352.615 82.864 358.375 83.248 364.807 83.248H367.879C374.311 83.248 380.071 82.864 385.255 82C390.535 81.136 394.855 80.08 398.311 78.736C401.767 77.296 404.839 75.664 407.527 73.744C410.215 71.728 412.231 69.808 413.671 67.888C415.111 65.872 416.263 63.76 417.223 61.456C418.087 59.152 418.759 57.04 418.951 55.312C419.239 53.488 419.335 51.568 419.335 49.648V46.96C419.335 44.944 419.239 43.12 418.951 41.296C418.759 39.472 418.087 37.456 417.223 35.152C416.263 32.848 415.111 30.736 413.575 28.816C412.135 26.896 410.119 24.976 407.431 23.056C404.839 21.136 401.767 19.504 398.311 18.16C394.759 16.816 390.439 15.76 385.255 14.992C380.071 14.128 374.311 13.744 367.879 13.744H364.807ZM395.335 48.88C395.335 50.992 394.951 53.104 394.087 55.024C393.319 56.944 391.879 58.864 389.863 60.688C387.847 62.608 384.775 64.144 380.647 65.2C377.095 66.256 372.775 66.736 367.879 66.928C367.111 66.928 365.959 66.928 365.479 66.928C360.199 66.832 355.591 66.256 351.751 65.2C347.623 64.048 344.647 62.512 342.631 60.592C340.711 58.672 339.271 56.752 338.503 54.832C337.639 52.912 337.255 50.8 337.255 48.688V47.632C337.255 36.208 346.567 30.352 365.095 29.968C365.671 29.968 367.399 29.968 368.263 30.064C372.007 30.16 375.367 30.448 378.343 31.12C381.895 31.888 384.775 32.848 386.887 34C388.999 35.056 390.727 36.496 391.975 38.128C393.319 39.76 394.183 41.296 394.663 42.832C395.143 44.272 395.335 45.904 395.335 47.632V48.88Z" fill="url(#paint4_linear_104_219)"/>
<path d="M479.541 82.096H501.525V35.536L530.421 82.096H542.709L571.509 35.536V82.096H594.165V14.896H562.773L537.333 56.752L512.085 14.896H479.541V82.096Z" fill="url(#paint5_linear_104_219)"/>
<path d="M605.823 14.704V82H684.159V66.352H628.479V55.312H681.854V39.952H628.479V29.968H683.102V14.704H605.823Z" fill="url(#paint6_linear_104_219)"/>
<path d="M694.323 14.896V82.096H768.146V65.392H717.171V14.896H694.323Z" fill="url(#paint7_linear_104_219)"/>
<path d="M1025.12 41.104C1024.93 39.376 1024.35 37.36 1023.58 35.152C1022.72 32.944 1021.66 30.928 1020.32 29.008C1018.98 27.088 1017.15 25.264 1014.85 23.344C1012.45 21.52 1009.66 19.888 1006.59 18.64C1003.42 17.296 999.487 16.336 994.879 15.472C990.175 14.704 984.991 14.32 979.327 14.32H818.527C812.767 14.32 807.583 14.704 802.879 15.472C798.175 16.336 794.239 17.296 791.071 18.64C787.903 19.888 785.119 21.52 782.815 23.344C780.415 25.264 778.591 27.088 777.247 29.008C775.999 30.928 774.943 32.944 774.079 35.248C773.311 37.456 772.831 39.472 772.543 41.2C772.351 42.928 772.255 44.752 772.255 46.672V49.36C772.255 51.184 772.351 53.008 772.543 54.736C772.831 56.56 773.311 58.576 774.079 60.784C774.943 63.088 775.999 65.104 777.247 67.024C778.591 68.944 780.511 70.864 782.815 72.784C785.215 74.704 787.999 76.24 791.071 77.584C794.239 78.928 798.175 79.984 802.879 80.848C807.583 81.616 812.767 82 818.527 82H979.327C984.991 82 990.175 81.616 994.879 80.848C999.583 79.984 1003.52 78.928 1006.59 77.584C1009.76 76.24 1012.45 74.704 1014.85 72.784C1017.25 70.864 1019.07 68.944 1020.41 67.024C1021.66 65.104 1022.72 63.088 1023.58 60.784C1024.35 58.576 1024.93 56.56 1025.12 54.736C1025.41 53.008 1025.5 51.184 1025.5 49.36V46.672C1025.5 44.752 1025.41 42.928 1025.12 41.104ZM1003.9 48.496C1003.9 50.608 1003.62 52.624 1002.85 54.544C1002.08 56.368 1000.83 58.288 999.007 60.112C997.183 61.936 994.399 63.376 990.751 64.528C987.391 65.488 983.263 66.064 978.559 66.16C978.175 66.16 820.735 66.16 820.351 66.16C815.071 66.16 810.559 65.584 806.815 64.432C803.167 63.376 800.383 61.84 798.655 60.016C796.831 58.096 795.583 56.176 794.911 54.352C794.143 52.432 793.759 50.512 793.759 48.4V47.344C793.759 35.824 802.591 30.16 820.351 30.16C820.735 30.16 978.175 30.16 978.559 30.16C982.399 30.256 985.759 30.544 988.639 31.216C991.903 31.984 994.495 32.944 996.319 34C998.239 35.152 999.775 36.496 1000.93 38.032C1002.08 39.664 1002.94 41.2 1003.33 42.64C1003.71 44.08 1003.9 45.616 1003.9 47.344V48.496Z" fill="url(#paint8_linear_104_219)"/>
<rect x="105" width="34" height="12" fill="#5502CD"/>
<defs>
<linearGradient id="paint0_linear_104_219" x1="1172" y1="53" x2="1017.24" y2="656.557" gradientUnits="userSpaceOnUse">
<stop stop-color="#FF9900"/>
<stop offset="0.156801" stop-color="#FF0E9F"/>
<stop offset="0.313602" stop-color="#6F00C6"/>
<stop offset="0.470402" stop-color="#1807E0"/>
<stop offset="0.627203" stop-color="#0098C8"/>
<stop offset="0.784004" stop-color="#74DEFF"/>
</linearGradient>
<linearGradient id="paint1_linear_104_219" x1="1172" y1="53" x2="1017.24" y2="656.557" gradientUnits="userSpaceOnUse">
<stop stop-color="#FF9900"/>
<stop offset="0.156801" stop-color="#FF0E9F"/>
<stop offset="0.313602" stop-color="#6F00C6"/>
<stop offset="0.470402" stop-color="#1807E0"/>
<stop offset="0.627203" stop-color="#0098C8"/>
<stop offset="0.784004" stop-color="#74DEFF"/>
</linearGradient>
<linearGradient id="paint2_linear_104_219" x1="1172" y1="53" x2="1017.24" y2="656.557" gradientUnits="userSpaceOnUse">
<stop stop-color="#FF9900"/>
<stop offset="0.156801" stop-color="#FF0E9F"/>
<stop offset="0.313602" stop-color="#6F00C6"/>
<stop offset="0.470402" stop-color="#1807E0"/>
<stop offset="0.627203" stop-color="#0098C8"/>
<stop offset="0.784004" stop-color="#74DEFF"/>
</linearGradient>
<linearGradient id="paint3_linear_104_219" x1="1172" y1="53" x2="1017.24" y2="656.557" gradientUnits="userSpaceOnUse">
<stop stop-color="#FF9900"/>
<stop offset="0.156801" stop-color="#FF0E9F"/>
<stop offset="0.313602" stop-color="#6F00C6"/>
<stop offset="0.470402" stop-color="#1807E0"/>
<stop offset="0.627203" stop-color="#0098C8"/>
<stop offset="0.784004" stop-color="#74DEFF"/>
</linearGradient>
<linearGradient id="paint4_linear_104_219" x1="1172" y1="53" x2="1017.24" y2="656.557" gradientUnits="userSpaceOnUse">
<stop stop-color="#FF9900"/>
<stop offset="0.156801" stop-color="#FF0E9F"/>
<stop offset="0.313602" stop-color="#6F00C6"/>
<stop offset="0.470402" stop-color="#1807E0"/>
<stop offset="0.627203" stop-color="#0098C8"/>
<stop offset="0.784004" stop-color="#74DEFF"/>
</linearGradient>
<linearGradient id="paint5_linear_104_219" x1="1172" y1="53" x2="1017.24" y2="656.557" gradientUnits="userSpaceOnUse">
<stop stop-color="#FF9900"/>
<stop offset="0.156801" stop-color="#FF0E9F"/>
<stop offset="0.313602" stop-color="#6F00C6"/>
<stop offset="0.470402" stop-color="#1807E0"/>
<stop offset="0.627203" stop-color="#0098C8"/>
<stop offset="0.784004" stop-color="#74DEFF"/>
</linearGradient>
<linearGradient id="paint6_linear_104_219" x1="1172" y1="53" x2="1017.24" y2="656.557" gradientUnits="userSpaceOnUse">
<stop stop-color="#FF9900"/>
<stop offset="0.156801" stop-color="#FF0E9F"/>
<stop offset="0.313602" stop-color="#6F00C6"/>
<stop offset="0.470402" stop-color="#1807E0"/>
<stop offset="0.627203" stop-color="#0098C8"/>
<stop offset="0.784004" stop-color="#74DEFF"/>
</linearGradient>
<linearGradient id="paint7_linear_104_219" x1="1172" y1="53" x2="1017.24" y2="656.557" gradientUnits="userSpaceOnUse">
<stop stop-color="#FF9900"/>
<stop offset="0.156801" stop-color="#FF0E9F"/>
<stop offset="0.313602" stop-color="#6F00C6"/>
<stop offset="0.470402" stop-color="#1807E0"/>
<stop offset="0.627203" stop-color="#0098C8"/>
<stop offset="0.784004" stop-color="#74DEFF"/>
</linearGradient>
<linearGradient id="paint8_linear_104_219" x1="1172" y1="53" x2="1017.24" y2="656.557" gradientUnits="userSpaceOnUse">
<stop stop-color="#FF9900"/>
<stop offset="0.156801" stop-color="#FF0E9F"/>
<stop offset="0.313602" stop-color="#6F00C6"/>
<stop offset="0.470402" stop-color="#1807E0"/>
<stop offset="0.627203" stop-color="#0098C8"/>
<stop offset="0.784004" stop-color="#74DEFF"/>
</linearGradient>
</defs>
</svg>
