<?xml version="1.0" standalone="no"?>
<!DOCTYPE svg PUBLIC "-//W3C//DTD SVG 20010904//EN"
 "http://www.w3.org/TR/2001/REC-SVG-20010904/DTD/svg10.dtd">
<svg version="1.0" xmlns="http://www.w3.org/2000/svg"
 width="32.000000pt" height="32.000000pt" viewBox="0 0 32.000000 32.000000"
 preserveAspectRatio="xMidYMid meet">

<g transform="translate(0.000000,32.000000) scale(0.100000,-0.100000)"
fill="#000000" stroke="none">
<path d="M0 160 l0 -160 160 0 160 0 0 160 0 160 -160 0 -160 0 0 -160z m190
106 c0 -8 -7 -17 -16 -20 -10 -4 -13 -13 -9 -26 7 -23 -5 -26 -24 -7 -18 18
-51 -26 -51 -69 0 -67 77 -99 127 -52 36 34 32 90 -9 122 -18 14 -28 26 -22
26 16 0 52 -33 68 -64 18 -36 6 -83 -31 -115 -22 -19 -34 -22 -72 -18 -60 7
-91 41 -91 101 0 51 25 87 78 116 45 23 52 24 52 6z"/>
</g>
</svg>
