<svg width="1037" height="569" viewBox="0 0 1037 569" fill="none" xmlns="http://www.w3.org/2000/svg">
<path d="M659.132 1923.71C745.312 1877.28 848.998 1841.85 906.52 1763.66C992.585 1646.57 1015.37 1466.06 1092.26 1339.81C1121.56 1291.77 1156.42 1254.53 1237.54 1268.84C1303.65 1280.51 1385.82 1318.88 1467.3 1358.49C1613.02 1429.29 1786.57 1527.13 1871.49 1497.12C1975.92 1460.26 1919.95 1234.47 1921.5 1098.83C1922.31 1027.69 1922.92 945.463 1981.5 931.867C2034.56 919.464 2126.62 958.645 2212.62 999.935C2382.18 1081.3 2614.77 1228.98 2691.7 1162.2C2784.89 1081.21 2730.02 856.145 2827.65 778.636" stroke="url(#paint0_linear_104_141)" stroke-miterlimit="10"/>
<path d="M624.391 1879.81C708.614 1834.38 810.862 1799.59 865.054 1721.08C950.187 1597.72 966.742 1406.36 1041.99 1273.1C1070.04 1223.45 1103.07 1184.41 1188.38 1204.11C1257.79 1220.32 1343.81 1265.56 1428.38 1311.53C1577.94 1392.75 1762.69 1508.12 1849.72 1480.12C1905.35 1462.25 1902.62 1375.64 1900.91 1302.01C1899.02 1220.31 1888.53 1131.63 1886.55 1049.87C1884.77 974.766 1880.95 883.493 1942.36 870.565C1996.63 859.126 2093.21 904.723 2181.65 951.033C2354.46 1041.65 2603.39 1210.83 2678.57 1140.73C2768.72 1056.79 2695.08 816.828 2790.25 736.742" stroke="url(#paint1_linear_104_141)" stroke-miterlimit="10"/>
<path d="M589.92 1836.97C672.549 1792.4 773.776 1758.2 825.759 1679.99C910.528 1552.53 921.164 1352.06 995.098 1213.82C1022.01 1163.31 1054.4 1123.03 1141.88 1146.14C1213.51 1165.06 1303.07 1216.13 1390.11 1266.92C1543.24 1356.25 1735.98 1484.81 1825.03 1457.71C1882.72 1440.04 1877.1 1347.76 1873.51 1270.9C1869.42 1184.09 1856.06 1089.86 1851.91 1002.98C1848.13 924.617 1841.5 827.626 1904.81 814.723C1959.88 803.516 2059.26 853.556 2149.85 903.971C2325.96 1001.94 2585.18 1186.9 2660.58 1114.7C2749.52 1029.55 2659.29 776.299 2754.08 695.586" stroke="url(#paint2_linear_104_141)" stroke-miterlimit="10"/>
<path d="M555.647 1795.23C637.158 1751.41 737.995 1717.77 788.995 1640.53C874.085 1511.67 879.037 1304.11 952.366 1163.56C978.603 1113.43 1011.56 1072.41 1098.62 1096.18C1171.5 1116.06 1263.7 1170.97 1352.56 1224.84C1509.52 1320.09 1705.94 1455.81 1796.23 1427.48C1854.88 1409.09 1848.82 1316.12 1843.72 1236.52C1838.05 1146.19 1822.5 1048.01 1816.75 957.618C1811.6 876.761 1804.25 778.607 1868.49 765.05C1923.88 753.358 2023.65 805 2116.28 858.488C2297.19 962.935 2557.77 1155.13 2635.53 1082.03C2725.39 997.567 2621.65 733.12 2718.79 654.464" stroke="url(#paint3_linear_104_141)" stroke-miterlimit="10"/>
<path d="M521.812 1754.52C602.454 1710.23 704.421 1678.43 754.484 1600.72C837.692 1471.27 837.428 1260.41 908.283 1118.81C933.738 1068.02 967.392 1027.88 1053.91 1051.08C1127.52 1070.88 1221.05 1126.3 1311.06 1180.78C1470.48 1277.28 1669.24 1414.76 1762.51 1388.18C1822.69 1371 1817.04 1279.03 1811.38 1198.47C1804.92 1107.12 1788.06 1007.59 1781.57 916.218C1775.71 834.204 1768.91 737.186 1834.39 724.426C1890.8 713.436 1990.44 765.324 2083.79 819.55C2266.57 925.758 2523.27 1115.56 2602.87 1043.36C2694.46 960.437 2584.74 690.529 2684.37 614.043" stroke="url(#paint4_linear_104_141)" stroke-miterlimit="10"/>
<path d="M488.806 1714.78C568.921 1669.32 673.987 1641.64 722.216 1561.33C800.772 1430.53 795.667 1218.81 861.92 1075.99C886.411 1023.13 919.774 984.759 1007.21 1007.93C1081.75 1027.63 1175.75 1081.69 1266.32 1134.97C1426.3 1229.16 1628.82 1367.04 1726.92 1346.13C1789.86 1332.73 1784.23 1240.52 1778.23 1160.21C1771.45 1069.53 1753.83 970.33 1746.97 879.589C1740.75 797.324 1734.42 700.871 1802.21 690.975C1860.53 682.451 1961.59 735.065 2054.69 788.252C2235.35 891.433 2490.27 1075.97 2569.21 1005.02C2661.26 922.229 2550.73 650.973 2650.85 574.652" stroke="url(#paint5_linear_104_141)" stroke-miterlimit="10"/>
<path d="M456.143 1675.65C536.347 1629.52 645.711 1607.29 692.535 1524.52C766.79 1393.26 756.867 1181.32 818.912 1038.25C842.492 983.651 875.946 947.204 963.379 969.483C1038.28 988.578 1132 1040.07 1223.26 1092.2C1383.64 1183.77 1588.31 1319.59 1690.72 1303.87C1755.91 1293.89 1751.05 1203.26 1744.87 1123.42C1737.85 1033.87 1719.65 935.663 1712.63 846.167C1706.18 763.881 1701.03 669.668 1770.74 662.435C1831.08 656.209 1933.1 708.771 2026.28 760.811C2205.32 860.675 2457.69 1038.53 2536.13 968.263C2628.76 885.33 2517.46 612.412 2618.12 535.914" stroke="url(#paint6_linear_104_141)" stroke-miterlimit="10"/>
<path d="M423.91 1637.23C504.773 1590.91 619.617 1575.17 665.268 1490.07C735.569 1359.18 720.895 1147.54 778.82 1004.73C801.525 948.781 835.48 914.35 922.14 935.066C997.058 952.958 1090.34 1001.78 1181.77 1052C1342.64 1140.14 1547.35 1272.4 1654.14 1261.42C1721.08 1254.51 1717.72 1167.13 1711.45 1087.91C1704.48 1000.21 1685.67 903.254 1678.61 815.495C1671.96 733.264 1668.65 642.907 1739.97 638.09C1802.38 633.931 1904.96 685.776 1998.32 736.319C2176.1 832.534 2425.31 1002.51 2503.33 932.626C2596.49 849.155 2484.52 574.377 2585.78 497.412" stroke="url(#paint7_linear_104_141)" stroke-miterlimit="10"/>
<path d="M392.102 1599.53C474.101 1553.39 595.273 1545.08 640.103 1457.77C706.765 1327.97 687.282 1116.88 741.644 975.33C763.434 918.355 798.195 885.882 883.387 904.472C958.005 920.764 1050.52 966.575 1141.54 1014C1302.77 1098.02 1506.02 1225.32 1616.96 1218.68C1750.87 1210.69 1656.67 934.411 1644.65 787.093C1637.94 705.053 1637 619.811 1709.7 617.373C1774.37 615.237 1877.18 665.928 1970.85 714.812C2147.67 807.082 2393.21 968.235 2470.89 898.364C2564.62 814.125 2452.03 537.23 2553.9 459.577" stroke="url(#paint8_linear_104_141)" stroke-miterlimit="10"/>
<path d="M360.802 1562.56C444.309 1516.92 572.533 1516.81 616.91 1427.5C680.26 1299.39 656.337 1089.57 707.128 949.529C728.082 891.848 763.924 861.342 847.089 877.329C921.105 891.613 1012.43 933.866 1103.06 978.508C1264.13 1057.81 1464.72 1178.71 1579.87 1176.28C1715.96 1173.32 1623.08 905.726 1611.08 760.869C1604.52 680.861 1604.63 596.659 1680.12 599.856C1750.19 602.802 1848.23 647.835 1944.02 695.764C2120.02 783.777 2361.49 935.343 2439 865.249C2533.32 780.02 2420.14 500.856 2522.6 422.214" stroke="url(#paint9_linear_104_141)" stroke-miterlimit="10"/>
<path d="M329.761 1526.24C415.03 1481.27 551.013 1490.04 594.896 1398.54C655.265 1272.63 626.853 1064.19 674.555 926.355C757.31 686.853 1287.02 1130.55 1542.74 1134.08C1680.63 1136.04 1589.72 878.719 1578.12 736.66C1571.69 657.121 1574.99 579.871 1651.3 585.08C1723.95 590.04 1821.72 633.117 1917.95 678.976C2093.41 762.663 2330.44 903.954 2407.88 833.413C2502.83 747.059 2389.09 465.446 2492.29 385.78" stroke="url(#paint10_linear_104_141)" stroke-miterlimit="10"/>
<path d="M299.548 1490.71C386.94 1446.79 530.886 1464.6 574.591 1371.15C632.248 1247.9 599.578 1041.14 644.309 905.832C722.886 668.335 1247.05 1080.42 1505.83 1092.25C1645.21 1098.68 1556.92 853.44 1545.62 714.044C1539.2 634.798 1546.27 565.49 1623.11 572.502C1698.39 579.452 1795.84 620.333 1892.47 663.978C2067.19 742.9 2299.75 873.79 2377.22 802.556C2472.68 714.832 2358.55 430.865 2462.42 350.01" stroke="url(#paint11_linear_104_141)" stroke-miterlimit="10"/>
<path d="M269.884 1455.91C359.463 1413.08 511.686 1440.23 555.426 1344.98C610.664 1224.69 573.766 1019.83 615.967 887.338C690.78 652.343 1207.48 1030.88 1469.37 1051C1610.12 1061.81 1524.58 829.407 1513.65 692.628C1507.36 613.762 1518.37 552.886 1595.39 561.368C1673.15 570.081 1770.53 608.993 1867.43 650.185C2041.5 724.304 2269.37 844.502 2346.94 772.532C2442.9 683.389 2328.4 396.943 2432.96 314.833" stroke="url(#paint12_linear_104_141)" stroke-miterlimit="10"/>
<path d="M240.793 1421.84C332.577 1380.12 493.187 1416.62 537.192 1319.7C590.299 1202.58 549.397 999.676 589.253 870.252C660.714 638.109 1168.68 982.307 1433.45 1010.44C1575.52 1025.54 1492.82 806.352 1482.26 672.087C1476.09 593.651 1491.38 541.345 1568.66 551.465C1648.98 562.004 1746.19 598.745 1843.35 637.537C2016.78 706.843 2239.91 816.326 2317.64 743.483C2414.23 652.907 2299.38 364.113 2404.49 280.56" stroke="url(#paint13_linear_104_141)" stroke-miterlimit="10"/>
<path d="M212.335 1388.55C306.265 1347.92 475.13 1393.53 519.419 1295.2C570.668 1181.37 525.927 980.472 563.74 854.219C632.423 624.985 1130.65 934.634 1398.32 970.665C1541.67 989.99 1461.8 784.024 1451.54 652.052C1445.49 574.045 1465.15 530.266 1542.39 541.866C1625.3 554.269 1722.49 589.024 1819.78 625.28C1992.32 689.598 2210.92 788.714 2288.92 715.036C2386.1 623.048 2270.67 331.605 2376.62 246.972" stroke="url(#paint14_linear_104_141)" stroke-miterlimit="10"/>
<path d="M184.477 1355.97C280.569 1316.33 457.295 1370.75 502.065 1271.1C551.713 1160.58 503.358 961.68 539.399 838.61C605.637 612.37 1093.41 887.935 1363.94 931.896C1508.8 955.43 1431.08 762.009 1421.46 632.407C1415.74 554.984 1439.27 519.216 1516.64 532.269C1602.1 546.552 1699.43 579.544 1796.73 613.275C1968.38 672.756 2182.44 761.715 2260.64 687.086C2358.37 593.752 2242.5 299.894 2349.09 214.033" stroke="url(#paint15_linear_104_141)" stroke-miterlimit="10"/>
<path d="M157.127 1324.17C255.159 1285.32 439.35 1348 484.682 1247.24C533.003 1139.92 481.164 942.773 515.737 822.874C549.258 706.541 712.378 731.845 868.101 768.683C1018.29 804.234 1185.49 866.586 1330.61 894.116C1477.68 922.025 1400.15 739.468 1392.05 612.488C1381.36 443.939 1605.71 546.488 1774.28 600.796C1944.97 655.698 2154.66 734.983 2233.11 659.482C2331.43 564.931 2215.09 268.693 2322.37 181.717" stroke="url(#paint16_linear_104_141)" stroke-miterlimit="10"/>
<path d="M130.565 1293.1C230.347 1254.83 421.107 1325.15 467.272 1223.35C514.5 1119.08 459.541 923.669 492.897 806.615C525.767 690.907 688.799 711.713 839.054 741.441C986.203 770.575 1149.46 825.437 1298.6 857.672C1447.75 889.907 1371.45 717.601 1363.56 592.34C1353.23 427.708 1591.34 539.669 1752.54 587.821C1922.24 638.504 2127.67 708.559 2206.4 632.427C2305.24 536.804 2188.4 238.34 2296.23 150.39" stroke="url(#paint17_linear_104_141)" stroke-miterlimit="10"/>
<path d="M104.739 1262.84C206.101 1224.93 402.451 1301.89 449.417 1199.19C495.852 1097.75 438.102 903.862 470.161 789.387C502.622 674.336 665.399 690.935 810.747 714.237C954.974 737.403 1114.88 785.595 1267.92 822.601C1340.11 840.041 1370.39 826.352 1366.35 756.848C1363.06 700.35 1339.47 628.227 1335.89 571.466C1331.06 495.677 1365.26 479.813 1442.84 497.106C1536.13 517.958 1634.26 546.747 1731.4 573.771C1899.77 620.404 2101.3 682.168 2180.31 605.564C2279.75 509.142 2162.29 208.53 2270.82 119.83" stroke="url(#paint18_linear_104_141)" stroke-miterlimit="10"/>
<path d="M79.6072 1233.31C181.842 1194.94 383.029 1278.01 430.933 1174.53C476.779 1075.46 415.99 882.303 447.718 770.476C480.146 656.149 642.317 668.823 783.593 686.756C924.869 704.689 1082.27 747.364 1239.14 789.283C1311.63 808.651 1344.62 799.403 1340.46 730.309C1337.16 675.521 1313.03 604.806 1309.41 549.771C1304.42 474.157 1341.72 462.784 1419.7 481.804C1515.52 505.174 1614.35 533.45 1711.19 558.468C1878.19 601.588 2076.23 655.865 2155.34 579.094C2255.34 482.107 2137.22 179.587 2246.27 90.4004" stroke="url(#paint19_linear_104_141)" stroke-miterlimit="10"/>
<path d="M55.2786 1204.66C158.154 1165.54 362.711 1253.41 411.552 1149.21C457.045 1051.98 392.998 858.785 425.164 749.515C458.395 636.305 619.082 645.306 757.029 658.409C896.051 671.568 1051.11 710.253 1211.69 757.09C1284.66 778.344 1319.93 772.304 1315.49 703.349C1312.08 649.804 1287.25 579.966 1283.44 526.11C1278.1 450.406 1317.98 442.092 1396.67 463.032C1494.93 489.125 1594.5 517.232 1691.2 540.723C1856.57 580.927 2051.54 628.636 2130.75 552.07C2231.29 454.84 2112.4 150.586 2222.06 61.1694" stroke="url(#paint20_linear_104_141)" stroke-miterlimit="10"/>
<path d="M31.7158 1176.76C134.628 1136.22 341.215 1227.76 390.99 1122.86C436.425 1027.1 370.288 834.007 402.061 726.028C435.284 613.281 596.17 620.156 731.198 629.452C868.375 638.913 1021.89 675.146 1186.28 727.101C1260.17 750.473 1297.07 746.073 1292.15 676.893C1288.38 623.947 1262.77 554.464 1258.65 501.184C1252.76 425.088 1294.41 418.075 1374.29 441.248C1475.09 470.48 1575.39 498.776 1671.94 521.101C1835.7 558.945 2027.94 601.35 2107.04 525.351C2208.16 428.276 2088.35 122.509 2198.56 33.2126" stroke="url(#paint21_linear_104_141)" stroke-miterlimit="10"/>
<path d="M8.88833 1149.62C111.458 1107.86 318.719 1201.23 368.653 1095.51C413.819 999.949 347.397 807.202 379.206 699.72C412.524 587.233 574.997 595.143 709.048 603.242C845.657 611.497 998.38 647.266 1163.25 699.597C1237.01 723.041 1273.07 717.002 1268.17 648.277C1264.42 595.683 1239.09 526.779 1235.25 474.078C1229.77 398.695 1271.78 391.077 1352.37 415.748C1454.6 447.034 1555.33 475.729 1651.69 497.434C1813.66 533.934 2006.35 574.492 2083.93 498C2183.74 399.692 2068.23 97.8782 2175.88 6.13886" stroke="url(#paint22_linear_104_141)" stroke-miterlimit="10"/>
<path d="M-13.6477 1122.97C88.7732 1080.66 296.59 1175.1 346.204 1068.61C390.87 972.681 325.923 781.054 358.132 673.922C391.82 561.852 556.484 572.721 690.716 581.25C827.294 589.944 979.546 625.765 1141.11 673.251C1294.03 718.181 1219.34 564.391 1213.37 447.054C1209.64 373.704 1251.37 365.401 1331.74 390.453C1434.21 422.399 1534.74 451.002 1630.6 472.144C1790.8 507.459 1985.32 547.741 2060.42 469.535C2157.25 368.637 2051.63 76.3257 2153.93 -20.237" stroke="url(#paint23_linear_104_141)" stroke-miterlimit="10"/>
<path d="M-35.9016 1096.74C66.573 1053.99 275.092 1149.6 324.615 1042.46C369.042 946.231 305.768 756.075 338.517 649.473C372.638 537.884 539.21 551.502 673.476 560.284C809.755 569.199 961.403 604.835 1119.52 647.454C1267.11 687.26 1195.83 535.068 1193.12 421.448C1191.32 350.343 1233.11 341.593 1313.19 366.912C1415.71 399.313 1515.73 427.572 1610.85 447.866C1769.27 481.694 1964.03 520.365 2036.8 440.783C2130.98 337.836 2035.48 55.2549 2132.88 -45.4898" stroke="url(#paint24_linear_104_141)" stroke-miterlimit="10"/>
<path d="M-57.8235 1071.03C44.8174 1027.88 254.217 1124.74 303.898 1017.13C348.29 921 286.913 732.334 320.28 626.317C355.327 515.774 523.084 531.335 657.239 540.243C792.968 549.205 943.941 584.338 1098.28 622.008C1240.72 656.708 1173.3 506.647 1173.9 396.6C1174.32 327.892 1216.38 319.006 1296.14 344.454C1398.48 377.124 1497.87 404.801 1591.93 424.002C1748.5 456.024 1941.92 491.948 2012.78 411.225C2104.68 306.606 2019.54 34.1232 2112.41 -70.3326" stroke="url(#paint25_linear_104_141)" stroke-miterlimit="10"/>
<path d="M-79.4375 1045.78C23.5716 1002.33 233.8 1100.42 283.959 992.476C328.531 896.64 269.035 709.411 303.527 604.539C339.503 495.086 508.132 512.553 642.133 521.302C777.104 530.163 927.149 564.619 1077.64 597.172C1214.99 626.889 1151.91 479.369 1156.31 373.214C1159.04 306.958 1201.65 298.248 1281.06 323.698C1383.28 356.894 1481.17 382.769 1574.32 401.209C1728.98 431.096 1919.75 463.352 1988.91 381.536C2078.67 275.734 2004.19 13.5444 2092.89 -93.9853" stroke="url(#paint26_linear_104_141)" stroke-miterlimit="10"/>
<path d="M-100.687 1021.03C2.78688 977.33 214.112 1076.73 264.829 968.566C309.676 873.126 252.349 687.583 287.999 583.834C325.151 475.753 494.353 494.614 628.01 503.204C762.059 511.742 910.999 545.256 1057.44 572.7C1189.8 597.531 1131.43 452.819 1139.94 350.755C1145.22 287.13 1188.56 278.82 1267.58 304.184C1369.18 337.158 1466.05 362.143 1557.69 379.007C1710.39 406.479 1896.93 433.773 1964.89 351.37C2052.84 244.73 1989.24 -6.81688 2074.09 -117.08" stroke="url(#paint27_linear_104_141)" stroke-miterlimit="10"/>
<path d="M-121.556 996.837C-17.5225 952.892 194.922 1053.6 246.581 945.526C291.904 850.686 236.899 666.949 273.786 564.536C312.192 457.937 481.654 478 614.876 486.168C747.582 494.193 895.494 526.52 1037.69 548.798C1165.16 568.797 1111.96 427.271 1124.81 329.479C1132.81 268.612 1177.08 260.909 1255.89 286.301C1356.68 318.903 1452.35 342.843 1542.27 357.97C1692.8 382.614 1874.12 404.328 1941.05 321.35C2027.46 214.29 1974.88 -26.3774 2056.28 -138.864" stroke="url(#paint28_linear_104_141)" stroke-miterlimit="10"/>
<path d="M-142.075 973.153C-37.3096 929.079 176.477 1031.21 228.973 923.058C274.989 829.062 222.474 647.291 260.785 546.321C300.617 441.422 470.024 462.338 602.574 470.006C734.11 477.636 880.509 508.306 1018.37 525.412C1141.01 540.604 1093.3 402.495 1110.77 309.2C1121.72 251.326 1166.98 244.302 1245.36 269.377C1345.26 301.471 1439.57 324.168 1527.58 337.296C1676.08 359.039 1850.98 374.244 1917.1 290.832C2002.04 183.469 1960.79 -45.8719 2038.97 -160.288" stroke="url(#paint29_linear_104_141)" stroke-miterlimit="10"/>
<path d="M-162.189 950.044C-56.6101 905.85 158.468 1009.48 212.37 901.637C258.959 808.337 209.07 628.606 248.961 529.253C290.361 426.236 459.399 447.761 591.297 454.815C721.451 461.8 866.236 490.662 999.592 502.576C1117.63 513.2 1075.69 378.627 1097.95 289.991C1111.81 234.985 1158.43 229.071 1236.13 253.491C1334.96 284.903 1427.76 306.216 1513.7 317.242C1659.91 335.656 1827.44 343.699 1892.97 259.986C1977.05 153.038 1946.95 -65.0821 2022.23 -181.043" stroke="url(#paint30_linear_104_141)" stroke-miterlimit="10"/>
<path d="M-181.862 927.502C-75.3757 883.243 141.105 988.336 196.308 880.842C243.914 788.574 196.654 610.88 238.264 513.279C281.341 412.295 449.692 434.182 580.968 440.452C709.59 446.663 852.593 473.492 981.401 480.179C1094.71 486.086 1059.01 355.425 1086.32 271.687C1103.28 219.758 1151.25 214.964 1228.77 239.201C1326.41 269.812 1417.54 289.58 1501.21 298.302C1644.95 313.167 1804.43 313.611 1869.45 229.564C1952.39 122.801 1933.99 -83.386 2006.62 -200.61" stroke="url(#paint31_linear_104_141)" stroke-miterlimit="10"/>
<path d="M-201 905.679C-93.6323 861.316 124.274 967.868 181.162 860.729C229.546 769.513 185.206 594.11 228.615 498.373C273.419 399.498 440.981 421.598 571.228 426.934C698.244 432.256 839.254 456.8 963.457 458.337C1072.26 459.713 1042.89 332.869 1075.44 254.298C1095.56 205.52 1144.97 201.902 1222.27 225.825C1318.61 255.522 1407.94 273.622 1489.2 279.91C1630.48 290.844 1780.88 282.872 1845.84 198.919C1928.1 92.8302 1921.24 -101.436 1991.45 -219.689" stroke="url(#paint32_linear_104_141)" stroke-miterlimit="10"/>
<path d="M-219.878 884.197C-111.306 839.925 108.12 947.944 166.621 841.355C216.089 751.343 174.701 578.215 219.974 484.466C266.69 387.865 433.188 409.958 562.636 414.501C688.001 418.904 826.802 440.907 946.352 437.312C1050.84 434.315 1028.11 311.538 1066.01 238.292C1089.41 192.767 1140.53 190.66 1217.39 213.957C1312.35 242.626 1399.77 258.941 1478.47 262.676C1617.06 269.437 1757.94 252.794 1822.78 168.81C1904.3 63.3211 1909.34 -118.468 1977.37 -237.509" stroke="url(#paint33_linear_104_141)" stroke-miterlimit="10"/>
<path d="M-238.191 863.456C-128.441 819.237 92.4977 928.739 152.874 822.767C203.398 734.023 165.012 563.296 212.334 471.594C260.952 377.325 426.283 399.312 554.705 402.816C678.358 406.175 814.754 425.48 929.604 416.769C1029.68 409.179 1013.93 290.77 1057.05 222.664C1083.76 180.475 1136.61 179.925 1213.31 202.773C1306.78 230.314 1392.17 244.715 1468.15 245.749C1603.79 248.052 1734.66 222.354 1799.61 138.475C1880.68 33.8975 1897.54 -135.358 1963.55 -255.075" stroke="url(#paint34_linear_104_141)" stroke-miterlimit="10"/>
<path d="M-255.992 843.339C-145.047 799.217 77.4827 910.168 139.737 804.916C191.472 717.465 156.181 549.196 205.571 459.638C256.215 367.848 420.179 389.522 547.619 391.909C669.575 394.215 803.334 410.573 913.512 396.773C1009.38 384.733 1000.72 270.744 1049.28 208.09C1079.34 169.234 1134.01 170.35 1210.34 192.489C1302.3 218.879 1385.64 231.329 1458.84 229.614C1591.38 227.159 1711.79 192.155 1776.96 108.48C1857.49 4.91437 1886.4 -151.486 1950.54 -271.702" stroke="url(#paint35_linear_104_141)" stroke-miterlimit="10"/>
<path d="M-273.283 823.832C-161.081 779.826 62.8855 892.047 127.327 787.773C180.319 701.698 148.126 535.891 199.678 448.589C252.473 359.425 414.899 380.613 541.249 381.833C661.474 382.996 792.409 396.238 897.85 377.425C989.697 361.039 988.206 251.594 1042.16 194.425C1075.59 159.003 1132.17 161.846 1208.23 183.383C1298.61 208.519 1379.78 218.909 1450.07 214.338C1579.26 206.88 1689.01 162.392 1754.43 78.9043C1834.77 -23.5716 1875.61 -166.868 1938.05 -287.515" stroke="url(#paint36_linear_104_141)" stroke-miterlimit="10"/>
<path d="M-290.007 805.088C-176.527 761.188 49.1943 875 115.597 771.453C169.835 686.757 140.881 523.486 194.753 438.617C249.58 351.985 410.551 372.805 535.845 372.737C654.45 372.855 782.288 382.704 883.038 358.897C971.014 338.129 976.734 233.367 1036.22 181.676C1073.06 149.667 1131.51 154.42 1207.49 175.199C1296.28 199.054 1375.24 207.332 1442.54 199.84C1727.49 171.101 1815.65 -81.3698 1926.74 -302.542" stroke="url(#paint37_linear_104_141)" stroke-miterlimit="10"/>
<path d="M-306.193 786.59C-191.381 742.874 35.8684 858.025 104.434 755.439C160.015 672.251 134.322 511.618 190.257 428.924C247.107 344.855 406.528 365.225 530.543 363.918C647.456 362.804 772.139 369.32 868.051 340.427C952.256 315.212 965.362 215.555 1030.2 169.192C1070.35 140.608 1130.95 147.328 1206.67 167.385C1294.36 190.855 1370.07 195.344 1434.85 185.702C1702.58 145.878 1808.48 -99.2179 1915.1 -317.02" stroke="url(#paint38_linear_104_141)" stroke-miterlimit="10"/>
<path d="M-321.788 768.962C-205.633 725.424 23.1789 841.923 93.9461 740.322C150.768 658.48 128.444 500.619 186.604 420.272C245.575 338.866 403.381 358.725 526.093 355.984C641.26 353.513 762.689 356.644 854.076 323.016C934.728 293.338 954.89 198.641 1025.32 157.854C1068.79 132.694 1131.45 141.388 1207.08 160.786C1293.14 182.843 1366.31 184.873 1428.11 172.412C1545.82 148.661 1622.98 74.993 1689.61 -7.42471C1769.54 -106.327 1846.42 -209.114 1904.28 -330.846" stroke="url(#paint39_linear_104_141)" stroke-miterlimit="10"/>
<path d="M-336.795 751.873C-220.398 708.782 8.61018 825.703 82.5299 727.902C141.702 649.347 123.406 495.876 180.967 415.918C239.159 335.101 392.599 353.114 513.239 349.183C629.738 345.239 751.285 345.394 840.609 306.191C919.914 271.399 946.46 177.894 1026.83 144.638C1075.35 124.571 1143.09 139.927 1217.92 157.203C1295.65 175.148 1360.97 174.417 1416.34 161.112C1534.19 132.787 1601.79 46.783 1670.68 -37.0748C1750.21 -133.858 1838.13 -222.488 1894.26 -343.619" stroke="url(#paint40_linear_104_141)" stroke-miterlimit="10"/>
<path d="M-351.168 735.437C-233.489 692.558 -2.88845 810.718 73.18 714.004C133.74 636.999 118.589 486.097 178.427 408.529C238.826 330.56 390.717 348.006 510.129 342.799C625.218 337.833 743.553 334.719 827.719 290.157C903.266 250.159 937.632 163.029 1023.51 135.149C1074.97 118.407 1144.77 135.63 1219.23 151.914C1295.46 168.573 1358.4 165.541 1411.02 149.652C1524.36 115.428 1580.86 19.2002 1650.53 -63.7822C1730.44 -158.957 1829.85 -234.117 1884.55 -355.689" stroke="url(#paint41_linear_104_141)" stroke-miterlimit="10"/>
<path d="M-364.849 719.706C-245.816 677.002 -13.8444 796.453 64.4606 700.734C126.298 625.133 114.37 476.93 176.44 401.731C238.673 326.182 389.455 343.558 507.739 337.071C621.197 330.933 736.098 324.294 815.347 274.662C887.36 229.545 929.273 148.737 1020.61 126.159C1075.01 112.747 1146.83 131.808 1220.86 147.121C1295.54 162.568 1356.2 157.185 1406.03 138.728C1514.72 98.5614 1560.42 -7.73145 1630.82 -89.8598C1711.06 -183.506 1821.89 -245.027 1875.28 -367.105" stroke="url(#paint42_linear_104_141)" stroke-miterlimit="10"/>
<path d="M-377.869 704.691C-257.67 662.052 -24.0759 782.756 56.3431 688.154C119.41 613.933 110.553 468.258 174.99 395.57C239.427 322.883 388.709 339.762 505.648 332.054C617.791 324.679 729.332 314.733 803.612 260.002C872.085 209.555 921.473 135.275 1018.21 117.932C1075.42 107.655 1149.34 128.715 1223.05 142.956C1296.76 157.197 1354.59 149.475 1401.7 128.519C1505.42 82.4726 1540.86 -33.8099 1611.91 -115.039C1692.52 -207.219 1814.8 -255.164 1866.68 -377.839" stroke="url(#paint43_linear_104_141)" stroke-miterlimit="10"/>
<path d="M-390.222 690.42C-268.645 648.101 -33.8344 769.686 48.8039 676.309C113.098 603.421 107.498 460.553 173.978 390.028C240.186 319.805 388.546 336.56 504.272 327.663C615.081 319.111 723.164 305.854 792.611 246.107C857.57 190.21 914.25 122.51 1016.34 110.272C1076.04 103.145 1152.28 126.145 1225.59 139.396C1297.53 152.377 1353.46 142.406 1397.85 119.057C1496.62 67.1655 1522.14 -58.8119 1593.73 -139.193C1674.7 -230.11 1808.22 -264.408 1858.55 -387.813" stroke="url(#paint44_linear_104_141)" stroke-miterlimit="10"/>
<path d="M-401.528 677.011C-278.793 634.815 -42.5098 757.666 42.0406 665.169C107.581 593.671 104.869 453.218 173.672 385.246C241.915 317.572 388.918 334.309 503.58 324.136C613.051 314.296 717.827 297.849 782.413 233.216C843.86 171.769 907.687 110.742 1015.05 103.489C1077.17 99.2325 1155.62 124.266 1228.54 136.515C1299.23 148.368 1352.72 136.17 1394.51 110.466C1488.23 52.8943 1504.35 -82.5034 1576.39 -162.123C1657.54 -251.768 1802.27 -272.398 1850.96 -396.877" stroke="url(#paint45_linear_104_141)" stroke-miterlimit="10"/>
<path d="M-411.693 664.446C-287.841 622.446 -50.3026 746.239 36.2028 654.832C102.729 584.459 103.301 446.888 173.89 380.982C243.846 315.674 389.982 332.688 503.465 321.238C611.682 310.213 713.161 290.62 772.979 221.225C830.854 154.119 901.691 99.692 1014.04 97.4036C1078.56 96.0692 1159.18 123.089 1231.85 134.408C1301.1 145.016 1352.54 130.806 1391.81 102.812C1480.44 39.7478 1487.71 -104.679 1560.1 -183.565C1641.36 -272.144 1797.12 -279.191 1844.14 -404.69" stroke="url(#paint46_linear_104_141)" stroke-miterlimit="10"/>
<path d="M-421.157 652.729C-296.296 610.93 -57.4279 735.728 30.8621 645.236C98.3721 575.988 101.83 441.09 174.448 377.276C246.145 314.318 391.49 331.568 503.825 319.035C611.111 307.128 709.139 284.21 764.269 210.174C818.557 137.319 896.018 89.478 1013.37 91.933C1080.1 93.3619 1162.92 122.342 1235.19 132.707C1303.41 142.481 1352.52 125.979 1389.33 95.8831C1472.91 27.5237 1471.95 -125.461 1544.44 -203.859C1625.8 -291.625 1792.41 -285.107 1837.53 -411.975" stroke="url(#paint47_linear_104_141)" stroke-miterlimit="10"/>
<path d="M-429.853 641.924C-303.985 600.169 -63.9408 725.946 25.9802 636.346C94.4735 568.17 100.738 435.773 175.246 374.071C248.606 313.343 393.222 330.955 504.594 317.452C610.918 304.575 705.697 278.545 756.263 199.964C806.829 121.383 890.864 79.9387 1013 86.9846C1081.73 90.9655 1166.29 121.317 1238.65 131.405C1306 140.84 1352.92 121.669 1387.19 89.5134C1466.01 16.2855 1457.28 -144.916 1529.87 -222.819C1611.04 -309.94 1788.53 -290.049 1831.56 -418.546" stroke="url(#paint48_linear_104_141)" stroke-miterlimit="10"/>
<path d="M-437.872 631.784C-311.12 590.086 -69.9463 716.864 21.5885 628.06C90.9275 560.974 99.9512 431.05 176.241 371.305C251.08 312.694 395.272 330.819 505.757 316.464C611.179 302.638 702.879 273.671 748.96 190.666C795.939 106.137 885.95 70.9263 1012.76 82.511C1083.38 88.8891 1169.93 120.997 1242.14 130.473C1308.63 139.196 1353.46 117.983 1385.62 84.1183C1420.68 47.1404 1440.65 -5.6155 1457.22 -61.194C1475.15 -121.112 1478.91 -200.028 1516.47 -240.269C1597.38 -327.02 1785.54 -293.915 1826.28 -424.308" stroke="url(#paint49_linear_104_141)" stroke-miterlimit="10"/>
<path d="M-444.959 622.948C-317.443 581.265 -75.198 709.028 17.7827 620.842C87.7667 554.427 99.2573 426.704 177.329 368.912C253.585 312.238 397.45 331.089 507.189 316.019C612.035 301.547 700.688 269.574 742.41 182.291C785.623 91.8587 881.454 62.5916 1012.83 78.5594C1085.27 87.4254 1173.54 120.964 1245.56 129.846C1311.25 137.93 1354.22 114.875 1384.26 79.25C1417.35 40.1273 1434.9 -15.0049 1449.45 -72.4886C1465.15 -134.407 1466.65 -216.083 1504.09 -256.41C1584.59 -343.026 1783.29 -296.913 1821.42 -429.611" stroke="url(#paint50_linear_104_141)" stroke-miterlimit="10"/>
<path d="M-451.393 614.902C-323.142 573.249 -79.8101 701.886 14.3269 614.261C84.91 548.487 98.9444 423.13 178.46 366.944C256.056 312.089 399.947 332.004 508.957 316.211C613.212 301.048 699.096 266.346 736.492 174.823C776.063 78.5303 877.207 54.8922 1012.98 75.0676C1086.96 86.0423 1176.96 121.108 1248.88 129.504C1313.88 137.058 1355.04 112.34 1383.26 75.1156C1414.45 33.9656 1429.74 -23.4132 1442.46 -82.6366C1456.15 -146.354 1455.61 -230.491 1492.86 -271.021C1572.66 -357.822 1781.86 -298.902 1817.26 -434.154" stroke="url(#paint51_linear_104_141)" stroke-miterlimit="10"/>
<path d="M-457.031 607.837C-328.336 565.948 -83.8502 695.691 11.2905 608.443C82.427 543.175 98.7888 419.874 179.733 365.248C258.546 312.011 402.697 333.182 511.103 316.864C614.937 301.182 698.239 263.865 731.542 168.399C767.228 66.1148 873.181 47.7918 1013.07 71.8472C1088.58 84.8855 1180.1 121.276 1251.94 129.284C1316.39 136.438 1356.03 110.217 1382.48 71.5865C1411.94 28.53 1425.13 -30.8708 1436.18 -91.706C1448 -157.146 1445.8 -243.261 1482.83 -284.135C1561.84 -371.447 1781.29 -300.009 1813.52 -438.157" stroke="url(#paint52_linear_104_141)" stroke-miterlimit="10"/>
<path d="M-461.845 601.784C-332.734 559.674 -87.2437 690.449 8.67201 603.383C80.1492 538.523 98.6694 417.153 180.752 363.766C260.66 312.001 405.226 334.662 513.276 317.949C616.86 301.923 697.873 262.203 727.177 162.849C759.056 54.6391 869.221 41.2098 1013.26 69.1277C1090.07 84.036 1182.95 121.624 1254.77 129.324C1318.8 136.215 1357.06 108.74 1381.98 68.8277C1409.87 24.0452 1421.2 -37.1852 1430.71 -99.4965C1440.9 -166.467 1437.33 -254.087 1474.15 -295.419C1552.09 -383.562 1781.73 -299.899 1810.42 -441.477" stroke="url(#paint53_linear_104_141)" stroke-miterlimit="10"/>
<path d="M-465.862 596.695C-337.333 554.891 -92.1841 685.789 4.51072 600.84C80.9412 533.737 99.235 403.611 193.602 356.148C274.273 315.564 407.053 335.691 508.352 320.973C615.968 305.323 695.095 262.308 723.94 158.663C756.069 43.9026 870.136 34.9507 1024.69 69.4381C1093.96 84.8716 1172.52 114.348 1240.14 127.354C1311.68 141.109 1354.01 113.686 1379.61 71.4797C1408.7 23.6112 1418.49 -43.3939 1426.99 -110.761C1435.43 -178.826 1431.52 -266.297 1468.58 -306.861C1547.1 -392.462 1783.39 -299.943 1807.88 -444.085" stroke="url(#paint54_linear_104_141)" stroke-miterlimit="10"/>
<path d="M-469.032 592.693C-340.417 550.476 -94.2816 682.538 2.68755 597.401C79.1076 530.259 99.4675 401.893 194.653 355.467C276.023 315.825 409.855 337.898 511.126 323.242C618.851 307.635 696.231 262.614 721.295 155.226C749.466 34.3036 866.618 29.7376 1025.22 67.7769C1095.4 84.6027 1174.43 114.45 1242.17 127.433C1313.65 141.269 1355.16 113.234 1379.57 70.0442C1407.42 20.793 1415.46 -47.944 1422.84 -116.381C1430.29 -185.483 1425.78 -273.615 1462.35 -314.956C1539.52 -401.772 1785.47 -298.108 1805.76 -446.341" stroke="url(#paint55_linear_104_141)" stroke-miterlimit="10"/>
<path d="M-471.294 589.802C-342.711 547.184 -95.7544 680.344 1.22908 594.685C77.4711 527.33 99.5008 400.616 195.535 355C277.45 316.067 412.643 340.392 514.058 325.971C622.124 310.703 698.109 263.857 719.334 152.861C743.642 25.9362 862.945 25.0439 1025.29 66.2217C1096.32 84.2115 1175.87 114.51 1243.97 127.872C1315.56 141.902 1356.4 113.754 1379.94 69.6138C1434.27 -32.4479 1386.73 -236.842 1457.87 -320.771C1533.09 -409.533 1788.56 -295.174 1804.26 -447.867" stroke="url(#paint56_linear_104_141)" stroke-miterlimit="10"/>
<path d="M-472.732 587.97C-344.284 544.899 -96.4506 679.144 0.170266 592.844C76.0224 525.019 99.6751 399.71 196.15 354.7C278.567 316.341 415.371 343.158 517.149 329.223C625.607 314.374 700.721 266.053 718.323 151.59C738.725 18.7323 859.22 20.8186 1025.4 65.0892C1096.79 84.039 1178.05 116.199 1245.1 128.176C1316.28 140.85 1357.21 115.113 1380.38 69.7627C1433.39 -34.1089 1385.24 -238.369 1454.76 -324.783C1527.84 -415.811 1792.72 -291.208 1803.26 -448.803" stroke="url(#paint57_linear_104_141)" stroke-miterlimit="10"/>
<path d="M-473.288 587.411C-345.149 543.752 -96.5072 679.144 -0.546347 591.86C74.7427 523.372 99.5971 399.288 196.528 354.492C279.142 316.328 418.123 346.177 520.445 332.887C629.493 318.709 704.195 269.176 718.195 151.307C734.603 12.5758 855.344 16.8795 1025.34 64.1488C1180.6 107.277 1331.66 169.964 1381.01 70.4213C1433.19 -34.8626 1385.71 -237.577 1453.22 -326.933C1523.93 -420.546 1797.83 -286.419 1803.2 -449.271" stroke="url(#paint58_linear_104_141)" stroke-miterlimit="10"/>
<defs>
<linearGradient id="paint0_linear_104_141" x1="710.968" y1="1984.39" x2="2380.34" y2="366.021" gradientUnits="userSpaceOnUse">
<stop stop-color="#2C66B8"/>
<stop offset="1" stop-color="#8859EC"/>
</linearGradient>
<linearGradient id="paint1_linear_104_141" x1="683.356" y1="1948.78" x2="2361.26" y2="338.942" gradientUnits="userSpaceOnUse">
<stop stop-color="#2C66B8"/>
<stop offset="1" stop-color="#8859EC"/>
</linearGradient>
<linearGradient id="paint2_linear_104_141" x1="654.347" y1="1912.3" x2="2337.43" y2="308.095" gradientUnits="userSpaceOnUse">
<stop stop-color="#2C66B8"/>
<stop offset="1" stop-color="#8859EC"/>
</linearGradient>
<linearGradient id="paint3_linear_104_141" x1="623.049" y1="1874.01" x2="2308.63" y2="272.59" gradientUnits="userSpaceOnUse">
<stop stop-color="#2C66B8"/>
<stop offset="1" stop-color="#8859EC"/>
</linearGradient>
<linearGradient id="paint4_linear_104_141" x1="588.291" y1="1832.22" x2="2274.88" y2="232.088" gradientUnits="userSpaceOnUse">
<stop stop-color="#2C66B8"/>
<stop offset="1" stop-color="#8859EC"/>
</linearGradient>
<linearGradient id="paint5_linear_104_141" x1="553.467" y1="1790.35" x2="2241.05" y2="191.483" gradientUnits="userSpaceOnUse">
<stop stop-color="#2C66B8"/>
<stop offset="1" stop-color="#8859EC"/>
</linearGradient>
<linearGradient id="paint6_linear_104_141" x1="520.675" y1="1751.06" x2="2208.85" y2="152.891" gradientUnits="userSpaceOnUse">
<stop stop-color="#2C66B8"/>
<stop offset="1" stop-color="#8859EC"/>
</linearGradient>
<linearGradient id="paint7_linear_104_141" x1="489.457" y1="1713.83" x2="2177.88" y2="115.835" gradientUnits="userSpaceOnUse">
<stop stop-color="#2C66B8"/>
<stop offset="1" stop-color="#8859EC"/>
</linearGradient>
<linearGradient id="paint8_linear_104_141" x1="459.88" y1="1678.73" x2="2148.13" y2="80.5988" gradientUnits="userSpaceOnUse">
<stop stop-color="#2C66B8"/>
<stop offset="1" stop-color="#8859EC"/>
</linearGradient>
<linearGradient id="paint9_linear_104_141" x1="431.818" y1="1645.55" x2="2119.62" y2="46.8735" gradientUnits="userSpaceOnUse">
<stop stop-color="#2C66B8"/>
<stop offset="1" stop-color="#8859EC"/>
</linearGradient>
<linearGradient id="paint10_linear_104_141" x1="406.091" y1="1615.45" x2="2092.8" y2="15.4245" gradientUnits="userSpaceOnUse">
<stop stop-color="#2C66B8"/>
<stop offset="1" stop-color="#8859EC"/>
</linearGradient>
<linearGradient id="paint11_linear_104_141" x1="380.328" y1="1585.13" x2="2066.29" y2="-15.8033" gradientUnits="userSpaceOnUse">
<stop stop-color="#2C66B8"/>
<stop offset="1" stop-color="#8859EC"/>
</linearGradient>
<linearGradient id="paint12_linear_104_141" x1="355.512" y1="1556.01" x2="2040.45" y2="-45.9647" gradientUnits="userSpaceOnUse">
<stop stop-color="#2C66B8"/>
<stop offset="1" stop-color="#8859EC"/>
</linearGradient>
<linearGradient id="paint13_linear_104_141" x1="331.711" y1="1528.13" x2="2015.65" y2="-75.1012" gradientUnits="userSpaceOnUse">
<stop stop-color="#2C66B8"/>
<stop offset="1" stop-color="#8859EC"/>
</linearGradient>
<linearGradient id="paint14_linear_104_141" x1="308.563" y1="1501.05" x2="1991.39" y2="-103.535" gradientUnits="userSpaceOnUse">
<stop stop-color="#2C66B8"/>
<stop offset="1" stop-color="#8859EC"/>
</linearGradient>
<linearGradient id="paint15_linear_104_141" x1="285.904" y1="1474.57" x2="1967.44" y2="-131.308" gradientUnits="userSpaceOnUse">
<stop stop-color="#2C66B8"/>
<stop offset="1" stop-color="#8859EC"/>
</linearGradient>
<linearGradient id="paint16_linear_104_141" x1="264.338" y1="1449.55" x2="1944.21" y2="-158.196" gradientUnits="userSpaceOnUse">
<stop stop-color="#2C66B8"/>
<stop offset="1" stop-color="#8859EC"/>
</linearGradient>
<linearGradient id="paint17_linear_104_141" x1="242.526" y1="1424.05" x2="1921.1" y2="-184.988" gradientUnits="userSpaceOnUse">
<stop stop-color="#2C66B8"/>
<stop offset="1" stop-color="#8859EC"/>
</linearGradient>
<linearGradient id="paint18_linear_104_141" x1="220.784" y1="1398.58" x2="1898.22" y2="-211.682" gradientUnits="userSpaceOnUse">
<stop stop-color="#2C66B8"/>
<stop offset="1" stop-color="#8859EC"/>
</linearGradient>
<linearGradient id="paint19_linear_104_141" x1="199.203" y1="1373.21" x2="1875.7" y2="-237.999" gradientUnits="userSpaceOnUse">
<stop stop-color="#2C66B8"/>
<stop offset="1" stop-color="#8859EC"/>
</linearGradient>
<linearGradient id="paint20_linear_104_141" x1="177.158" y1="1347.25" x2="1852.93" y2="-264.893" gradientUnits="userSpaceOnUse">
<stop stop-color="#2C66B8"/>
<stop offset="1" stop-color="#8859EC"/>
</linearGradient>
<linearGradient id="paint21_linear_104_141" x1="154.893" y1="1320.87" x2="1830.24" y2="-291.613" gradientUnits="userSpaceOnUse">
<stop stop-color="#2C66B8"/>
<stop offset="1" stop-color="#8859EC"/>
</linearGradient>
<linearGradient id="paint22_linear_104_141" x1="132.355" y1="1294.07" x2="1807.54" y2="-318.579" gradientUnits="userSpaceOnUse">
<stop stop-color="#2C66B8"/>
<stop offset="1" stop-color="#8859EC"/>
</linearGradient>
<linearGradient id="paint23_linear_104_141" x1="109.801" y1="1267.4" x2="1784.48" y2="-345.825" gradientUnits="userSpaceOnUse">
<stop stop-color="#2C66B8"/>
<stop offset="1" stop-color="#8859EC"/>
</linearGradient>
<linearGradient id="paint24_linear_104_141" x1="87.4456" y1="1241.07" x2="1761.25" y2="-372.972" gradientUnits="userSpaceOnUse">
<stop stop-color="#2C66B8"/>
<stop offset="1" stop-color="#8859EC"/>
</linearGradient>
<linearGradient id="paint25_linear_104_141" x1="65.0416" y1="1214.81" x2="1737.59" y2="-400.544" gradientUnits="userSpaceOnUse">
<stop stop-color="#2C66B8"/>
<stop offset="1" stop-color="#8859EC"/>
</linearGradient>
<linearGradient id="paint26_linear_104_141" x1="43.0006" y1="1189.07" x2="1713.9" y2="-427.826" gradientUnits="userSpaceOnUse">
<stop stop-color="#2C66B8"/>
<stop offset="1" stop-color="#8859EC"/>
</linearGradient>
<linearGradient id="paint27_linear_104_141" x1="21.0085" y1="1163.48" x2="1689.9" y2="-455.415" gradientUnits="userSpaceOnUse">
<stop stop-color="#2C66B8"/>
<stop offset="1" stop-color="#8859EC"/>
</linearGradient>
<linearGradient id="paint28_linear_104_141" x1="-0.505886" y1="1138.55" x2="1665.93" y2="-482.554" gradientUnits="userSpaceOnUse">
<stop stop-color="#2C66B8"/>
<stop offset="1" stop-color="#8859EC"/>
</linearGradient>
<linearGradient id="paint29_linear_104_141" x1="-21.9096" y1="1113.86" x2="1641.61" y2="-509.928" gradientUnits="userSpaceOnUse">
<stop stop-color="#2C66B8"/>
<stop offset="1" stop-color="#8859EC"/>
</linearGradient>
<linearGradient id="paint30_linear_104_141" x1="-43.1312" y1="1089.49" x2="1616.86" y2="-537.388" gradientUnits="userSpaceOnUse">
<stop stop-color="#2C66B8"/>
<stop offset="1" stop-color="#8859EC"/>
</linearGradient>
<linearGradient id="paint31_linear_104_141" x1="-63.6471" y1="1066" x2="1592.44" y2="-564.28" gradientUnits="userSpaceOnUse">
<stop stop-color="#2C66B8"/>
<stop offset="1" stop-color="#8859EC"/>
</linearGradient>
<linearGradient id="paint32_linear_104_141" x1="-83.9695" y1="1042.83" x2="1567.48" y2="-591.309" gradientUnits="userSpaceOnUse">
<stop stop-color="#2C66B8"/>
<stop offset="1" stop-color="#8859EC"/>
</linearGradient>
<linearGradient id="paint33_linear_104_141" x1="-103.458" y1="1020.67" x2="1542.85" y2="-617.592" gradientUnits="userSpaceOnUse">
<stop stop-color="#2C66B8"/>
<stop offset="1" stop-color="#8859EC"/>
</linearGradient>
<linearGradient id="paint34_linear_104_141" x1="-122.591" y1="999.017" x2="1517.73" y2="-643.881" gradientUnits="userSpaceOnUse">
<stop stop-color="#2C66B8"/>
<stop offset="1" stop-color="#8859EC"/>
</linearGradient>
<linearGradient id="paint35_linear_104_141" x1="-140.874" y1="978.382" x2="1492.81" y2="-669.449" gradientUnits="userSpaceOnUse">
<stop stop-color="#2C66B8"/>
<stop offset="1" stop-color="#8859EC"/>
</linearGradient>
<linearGradient id="paint36_linear_104_141" x1="-158.146" y1="958.945" x2="1468.21" y2="-693.98" gradientUnits="userSpaceOnUse">
<stop stop-color="#2C66B8"/>
<stop offset="1" stop-color="#8859EC"/>
</linearGradient>
<linearGradient id="paint37_linear_104_141" x1="-175.297" y1="939.754" x2="1442.44" y2="-719.296" gradientUnits="userSpaceOnUse">
<stop stop-color="#2C66B8"/>
<stop offset="1" stop-color="#8859EC"/>
</linearGradient>
<linearGradient id="paint38_linear_104_141" x1="-188.026" y1="925.352" x2="1423.72" y2="-737.555" gradientUnits="userSpaceOnUse">
<stop stop-color="#2C66B8"/>
<stop offset="1" stop-color="#8859EC"/>
</linearGradient>
<linearGradient id="paint39_linear_104_141" x1="-201.458" y1="910.309" x2="1402.26" y2="-757.719" gradientUnits="userSpaceOnUse">
<stop stop-color="#2C66B8"/>
<stop offset="1" stop-color="#8859EC"/>
</linearGradient>
<linearGradient id="paint40_linear_104_141" x1="-212.446" y1="897.98" x2="1384.32" y2="-774.395" gradientUnits="userSpaceOnUse">
<stop stop-color="#2C66B8"/>
<stop offset="1" stop-color="#8859EC"/>
</linearGradient>
<linearGradient id="paint41_linear_104_141" x1="-221.832" y1="887.438" x2="1368.82" y2="-788.551" gradientUnits="userSpaceOnUse">
<stop stop-color="#2C66B8"/>
<stop offset="1" stop-color="#8859EC"/>
</linearGradient>
<linearGradient id="paint42_linear_104_141" x1="-229.957" y1="878.265" x2="1355.26" y2="-800.818" gradientUnits="userSpaceOnUse">
<stop stop-color="#2C66B8"/>
<stop offset="1" stop-color="#8859EC"/>
</linearGradient>
<linearGradient id="paint43_linear_104_141" x1="-236.798" y1="870.542" x2="1343.59" y2="-811.343" gradientUnits="userSpaceOnUse">
<stop stop-color="#2C66B8"/>
<stop offset="1" stop-color="#8859EC"/>
</linearGradient>
<linearGradient id="paint44_linear_104_141" x1="-242.623" y1="863.969" x2="1333.64" y2="-820.227" gradientUnits="userSpaceOnUse">
<stop stop-color="#2C66B8"/>
<stop offset="1" stop-color="#8859EC"/>
</linearGradient>
<linearGradient id="paint45_linear_104_141" x1="-248.416" y1="857.042" x2="1328.06" y2="-827.07" gradientUnits="userSpaceOnUse">
<stop stop-color="#2C66B8"/>
<stop offset="1" stop-color="#8859EC"/>
</linearGradient>
<linearGradient id="paint46_linear_104_141" x1="-254.535" y1="849.198" x2="1327.7" y2="-831.764" gradientUnits="userSpaceOnUse">
<stop stop-color="#2C66B8"/>
<stop offset="1" stop-color="#8859EC"/>
</linearGradient>
<linearGradient id="paint47_linear_104_141" x1="-259.817" y1="842.361" x2="1327.95" y2="-835.346" gradientUnits="userSpaceOnUse">
<stop stop-color="#2C66B8"/>
<stop offset="1" stop-color="#8859EC"/>
</linearGradient>
<linearGradient id="paint48_linear_104_141" x1="-264.265" y1="836.512" x2="1328.81" y2="-838.031" gradientUnits="userSpaceOnUse">
<stop stop-color="#2C66B8"/>
<stop offset="1" stop-color="#8859EC"/>
</linearGradient>
<linearGradient id="paint49_linear_104_141" x1="-267.922" y1="831.459" x2="1330.27" y2="-839.899" gradientUnits="userSpaceOnUse">
<stop stop-color="#2C66B8"/>
<stop offset="1" stop-color="#8859EC"/>
</linearGradient>
<linearGradient id="paint50_linear_104_141" x1="-270.972" y1="827.332" x2="1331.75" y2="-841.248" gradientUnits="userSpaceOnUse">
<stop stop-color="#2C66B8"/>
<stop offset="1" stop-color="#8859EC"/>
</linearGradient>
<linearGradient id="paint51_linear_104_141" x1="-273.461" y1="823.884" x2="1333.48" y2="-842.094" gradientUnits="userSpaceOnUse">
<stop stop-color="#2C66B8"/>
<stop offset="1" stop-color="#8859EC"/>
</linearGradient>
<linearGradient id="paint52_linear_104_141" x1="-275.465" y1="821.055" x2="1335.15" y2="-842.565" gradientUnits="userSpaceOnUse">
<stop stop-color="#2C66B8"/>
<stop offset="1" stop-color="#8859EC"/>
</linearGradient>
<linearGradient id="paint53_linear_104_141" x1="-276.947" y1="818.885" x2="1336.91" y2="-842.643" gradientUnits="userSpaceOnUse">
<stop stop-color="#2C66B8"/>
<stop offset="1" stop-color="#8859EC"/>
</linearGradient>
<linearGradient id="paint54_linear_104_141" x1="-277.776" y1="817.512" x2="1339.04" y2="-842.041" gradientUnits="userSpaceOnUse">
<stop stop-color="#2C66B8"/>
<stop offset="1" stop-color="#8859EC"/>
</linearGradient>
<linearGradient id="paint55_linear_104_141" x1="-278.545" y1="816.306" x2="1340.44" y2="-841.813" gradientUnits="userSpaceOnUse">
<stop stop-color="#2C66B8"/>
<stop offset="1" stop-color="#8859EC"/>
</linearGradient>
<linearGradient id="paint56_linear_104_141" x1="-278.725" y1="815.841" x2="1342.08" y2="-841.045" gradientUnits="userSpaceOnUse">
<stop stop-color="#2C66B8"/>
<stop offset="1" stop-color="#8859EC"/>
</linearGradient>
<linearGradient id="paint57_linear_104_141" x1="-278.892" y1="815.491" x2="1342.97" y2="-840.602" gradientUnits="userSpaceOnUse">
<stop stop-color="#2C66B8"/>
<stop offset="1" stop-color="#8859EC"/>
</linearGradient>
<linearGradient id="paint58_linear_104_141" x1="-280.436" y1="813.68" x2="1340.18" y2="-843.373" gradientUnits="userSpaceOnUse">
<stop stop-color="#2C66B8"/>
<stop offset="1" stop-color="#8859EC"/>
</linearGradient>
</defs>
</svg>
