<svg width="79" height="31" viewBox="0 0 79 31" fill="none" xmlns="http://www.w3.org/2000/svg">
<path d="M16.0098 3.9942V6.86962H4.04132V9.20356H13.8439V11.8362H4.04132V16H0.363022V3.9942H16.0098ZM18.6929 13.8154V11.3508H29.317V13.8154H18.6929ZM15.0333 16L21.9978 3.9942H26.0682L33.0887 16H29.037L23.0061 5.20785H25.0599L19.0664 16H15.0333ZM25.9748 0.278563V2.78055H22.1098V0.278563H25.9748ZM34.6975 16V3.9942H44.2947C46.361 3.9942 47.8983 4.24938 48.9065 4.75973C49.9148 5.25764 50.4189 6.06674 50.4189 7.18703C50.4189 7.909 50.2073 8.46915 49.7841 8.86747C49.3609 9.25335 48.7572 9.53342 47.973 9.70769C47.1888 9.88196 46.2614 9.98776 45.1909 10.0251L45.3029 9.89441C46.0871 9.89441 46.8216 9.92553 47.5062 9.98776C48.1908 10.05 48.7883 10.1745 49.2986 10.3612C49.809 10.5479 50.2073 10.8218 50.4936 11.1827C50.7924 11.5313 50.9417 12.0105 50.9417 12.6205C50.9417 13.3798 50.699 14.0084 50.2136 14.5063C49.7405 15.0042 49.0621 15.3776 48.1784 15.6266C47.307 15.8631 46.2863 15.9876 45.1162 16H34.6975ZM38.3758 13.1433H45.0042C45.7137 13.1433 46.2427 13.0561 46.5913 12.8819C46.9523 12.6951 47.1327 12.3964 47.1327 11.9856C47.1327 11.6993 47.0394 11.4877 46.8527 11.3508C46.666 11.2014 46.4046 11.1018 46.0685 11.052C45.7324 11.0023 45.3403 10.9774 44.8922 10.9774H38.3758V13.1433ZM38.3758 9.09153H44.3507C45.0602 9.09153 45.5892 9.0044 45.9378 8.83013C46.2988 8.65586 46.4792 8.36956 46.4792 7.97124C46.4792 7.56046 46.2988 7.27417 45.9378 7.11235C45.5892 6.93808 45.0789 6.85095 44.4067 6.85095H38.3758V9.09153ZM53.2671 3.9942H56.9454V16H53.2671V3.9942ZM69.3424 16.3174C67.1267 16.3174 65.3031 16.0747 63.8716 15.5892C62.4526 15.0913 61.4008 14.3756 60.7161 13.442C60.0315 12.496 59.6892 11.3508 59.6892 10.0064C59.6892 8.63719 60.0315 7.48578 60.7161 6.5522C61.4008 5.61862 62.4526 4.90911 63.8716 4.42365C65.3031 3.92574 67.1267 3.67678 69.3424 3.67678C71.5581 3.67678 73.3755 3.92574 74.7945 4.42365C76.2135 4.90911 77.2654 5.61862 77.95 6.5522C78.6346 7.48578 78.9769 8.63719 78.9769 10.0064C78.9769 11.3508 78.6346 12.496 77.95 13.442C77.2654 14.3756 76.2135 15.0913 74.7945 15.5892C73.3755 16.0747 71.5581 16.3174 69.3424 16.3174ZM69.3424 13.4047C70.4876 13.4047 71.4834 13.2926 72.3298 13.0686C73.1887 12.8445 73.8547 12.4835 74.3277 11.9856C74.8007 11.4877 75.0372 10.828 75.0372 10.0064C75.0372 9.17244 74.8007 8.50649 74.3277 8.00858C73.8547 7.51067 73.1887 7.14969 72.3298 6.92563C71.4834 6.70157 70.4876 6.58954 69.3424 6.58954C68.1848 6.58954 67.1641 6.70157 66.2803 6.92563C65.4089 7.14969 64.7243 7.51067 64.2264 8.00858C63.7409 8.50649 63.4982 9.17244 63.4982 10.0064C63.4982 10.828 63.7409 11.4877 64.2264 11.9856C64.7243 12.4835 65.4089 12.8445 66.2803 13.0686C67.1641 13.2926 68.1848 13.4047 69.3424 13.4047ZM12.7423 28.6743H10.6697L19.408 17.9942H23.0863V30H19.408V21.5791L20.4536 21.9712L13.8999 30H9.56809L2.99571 21.9899L4.04132 21.5978V30H0.363022V17.9942H4.04132L12.7423 28.6743ZM29.8857 24.9587V27.1246H41.8915V30H26.2074V17.9942H41.8541V20.8696H29.8857V23.0542H39.6882V24.9587H29.8857ZM48.4182 17.9942V27.1246H58.0341V30H44.7399V17.9942H48.4182ZM69.3631 30.3174C67.1474 30.3174 65.3238 30.0747 63.8923 29.5892C62.4733 29.0913 61.4214 28.3756 60.7368 27.442C60.0522 26.496 59.7099 25.3508 59.7099 24.0064C59.7099 22.6372 60.0522 21.4858 60.7368 20.5522C61.4214 19.6186 62.4733 18.9091 63.8923 18.4236C65.3238 17.9257 67.1474 17.6768 69.3631 17.6768C71.5787 17.6768 73.3961 17.9257 74.8151 18.4236C76.2342 18.9091 77.286 19.6186 77.9706 20.5522C78.6553 21.4858 78.9976 22.6372 78.9976 24.0064C78.9976 25.3508 78.6553 26.496 77.9706 27.442C77.286 28.3756 76.2342 29.0913 74.8151 29.5892C73.3961 30.0747 71.5787 30.3174 69.3631 30.3174ZM69.3631 27.4047C70.5082 27.4047 71.5041 27.2926 72.3505 27.0686C73.2094 26.8445 73.8753 26.4835 74.3484 25.9856C74.8214 25.4877 75.0579 24.828 75.0579 24.0064C75.0579 23.1724 74.8214 22.5065 74.3484 22.0086C73.8753 21.5107 73.2094 21.1497 72.3505 20.9256C71.5041 20.7016 70.5082 20.5895 69.3631 20.5895C68.2054 20.5895 67.1847 20.7016 66.3009 20.9256C65.4296 21.1497 64.745 21.5107 64.2471 22.0086C63.7616 22.5065 63.5189 23.1724 63.5189 24.0064C63.5189 24.828 63.7616 25.4877 64.2471 25.9856C64.745 26.4835 65.4296 26.8445 66.3009 27.0686C67.1847 27.2926 68.2054 27.4047 69.3631 27.4047Z" fill="#FDFDFD"/>
</svg>
